<?xml version="1.0" encoding="UTF-8" standalone="no"?>
<svg
   xmlns:dc="http://purl.org/dc/elements/1.1/"
   xmlns:cc="http://creativecommons.org/ns#"
   xmlns:rdf="http://www.w3.org/1999/02/22-rdf-syntax-ns#"
   xmlns:svg="http://www.w3.org/2000/svg"
   xmlns="http://www.w3.org/2000/svg"
   xmlns:sodipodi="http://sodipodi.sourceforge.net/DTD/sodipodi-0.dtd"
   xmlns:inkscape="http://www.inkscape.org/namespaces/inkscape"
   width="208.75502mm"
   height="135.3143mm"
   viewBox="0 0 208.75502 135.3143"
   version="1.1"
   id="svg1513"
   inkscape:version="1.0 (4035a4f, 2020-05-01)"
   sodipodi:docname="battlefield.svg">
  <defs
     id="defs1507" />
  <sodipodi:namedview
     id="base"
     pagecolor="#ffffff"
     bordercolor="#666666"
     borderopacity="1.0"
     inkscape:pageopacity="0.0"
     inkscape:pageshadow="2"
     inkscape:zoom="0.46173881"
     inkscape:cx="775.84603"
     inkscape:cy="119.21484"
     inkscape:document-units="mm"
     inkscape:current-layer="layer1"
     inkscape:document-rotation="0"
     showgrid="false"
     inkscape:window-width="1280"
     inkscape:window-height="755"
     inkscape:window-x="0"
     inkscape:window-y="23"
     inkscape:window-maximized="0" />
  <metadata
     id="metadata1510">
    <rdf:RDF>
      <cc:Work
         rdf:about="">
        <dc:format>image/svg+xml</dc:format>
        <dc:type
           rdf:resource="http://purl.org/dc/dcmitype/StillImage" />
        <dc:title />
      </cc:Work>
    </rdf:RDF>
  </metadata>
  <g
     transform="translate(273.47944,-69.001955)"
     inkscape:label="Layer 1"
     inkscape:groupmode="layer"
     id="layer1">
    <path
       id="rect1016"
       style="opacity:0.999;fill:#4cbddd;fill-opacity:1;stroke-width:0.0400069;stroke-linejoin:round;stroke-opacity:0.5;paint-order:fill markers stroke"
       d="m -273.47944,69.001955 v 14.412203 8.341967 14.808085 7.94613 3.9496 6.88542 11.31375 7.46741 5.5122 7.5128 13.33616 7.15625 3.55704 6.201 16.91428 h 39.47279 30.54351 8.92928 24.78498 1.2939 38.17889 30.543517 8.92928 26.07887 v -16.91428 -1.3568 -8.40124 -7.15625 -13.33616 -1.6438 -11.3812 -7.46741 -11.31375 -1.50654 -9.32848 -7.94613 -14.808085 -1.825199 -20.928971 h -26.07887 -8.92928 -30.543517 -38.17889 -1.2939 -24.78498 -8.92928 -30.54351 z"
       inkscape:export-filename="/Users/kalu/Projects/aircombat/src/client/assets/images/world.png"
       inkscape:export-xdpi="150"
       inkscape:export-ydpi="150" />
    <path
       inkscape:export-ydpi="150"
       inkscape:export-xdpi="150"
       inkscape:export-filename="/Users/kalu/Projects/aircombat/src/client/assets/images/world.png"
       style="fill:#ffffff;stroke:none;stroke-width:0.323551;stroke-linecap:butt;stroke-linejoin:miter;stroke-miterlimit:4;stroke-dasharray:none;stroke-opacity:1"
       d="m -193.7908,175.226 c -1.79961,0.2357 -10.74528,2.3545 -21.61969,0.9346 -1.15168,-0.3305 -0.79966,-0.9431 0,-1.1423 1.73498,-0.5297 6.9311,-0.4638 6.47781,-1.6017 -4.45182,-4.993 2.43081,-10.3835 8.6918,-10.8596 -5.53033,-10.0869 21.93202,-20.1181 23.24839,-2.3554 0.0216,0.2929 0.0363,0.5934 0.0435,0.9016 0.20812,-0.1645 0.40915,-0.3145 0.60332,-0.4511 3.29282,-2.3164 4.61784,-0.7661 5.18354,-0.1094 0.14441,0.1676 0.23934,0.277 0.30488,0.249 0.0824,-0.04 0.16426,-0.08 0.24584,-0.1188 12.82772,-6.1112 16.41584,5.8914 13.25152,11.2301 -0.0311,0.021 -0.11948,-0.035 -0.11948,0 0,0.096 0.45771,0.1528 0.59723,-0.1039 2.24344,-4.0472 6.1453,2.308 9.43622,2.3884 0,1.6734 -3.80493,2.0087 -5.25561,2.2846 -25.84982,-3.1018 -42.3078,1.5635 -39.94202,-0.7927 0.82197,-0.8186 -0.91863,-0.4712 -1.14732,-0.4534 z"
       id="path3025"
       sodipodi:nodetypes="cccccscsscscscccsc" />
  </g>
</svg>
